<?xml version="1.0" standalone="no"?>
<!DOCTYPE svg PUBLIC "-//W3C//DTD SVG 20010904//EN"
 "http://www.w3.org/TR/2001/REC-SVG-20010904/DTD/svg10.dtd">
<svg version="1.0" xmlns="http://www.w3.org/2000/svg"
 width="447.000000pt" height="447.000000pt" viewBox="0 0 447.000000 447.000000"
 preserveAspectRatio="xMidYMid meet">
<metadata>
Created by potrace 1.11, written by Peter Selinger 2001-2013
</metadata>
<g transform="translate(0.000000,447.000000) scale(0.100000,-0.100000)"
fill="#000000" stroke="none">
<path d="M2103 3893 c-11 -15 -46 -73 -78 -128 -32 -55 -101 -172 -153 -260
-52 -88 -103 -173 -112 -190 -55 -96 -166 -284 -348 -590 -52 -88 -103 -173
-112 -190 -61 -105 -206 -352 -310 -525 -53 -88 -109 -183 -150 -255 -9 -16
-60 -102 -112 -190 -283 -477 -368 -622 -368 -630 0 -24 30 16 98 128 43 72
103 170 132 217 29 47 92 150 140 230 48 80 111 183 140 230 29 47 86 141 127
210 42 69 92 152 113 185 20 33 52 84 71 114 18 30 34 60 35 66 1 10 224 383
440 739 44 71 165 271 269 445 105 173 195 316 200 318 6 1 96 -140 200 -314
105 -174 204 -339 221 -367 96 -156 494 -819 494 -822 0 -2 -7 -4 -15 -4 -22
0 -22 -1 228 -379 122 -183 222 -339 223 -347 2 -13 58 -113 171 -304 54 -90
205 -343 209 -348 1 -2 9 -2 18 0 11 2 -1 27 -48 98 -35 52 -95 157 -134 232
-39 76 -84 157 -99 180 -28 41 -64 102 -303 508 -57 96 -112 191 -124 210 -12
19 -28 47 -36 61 -8 14 -48 82 -89 150 -41 68 -119 201 -174 294 -189 321
-360 610 -446 753 -47 79 -92 155 -100 170 -18 36 -182 315 -191 325 -4 5 -16
-4 -27 -20z"/>
<path d="M1957 3513 c-92 -153 -188 -312 -213 -353 -103 -167 -494 -820 -494
-825 0 -3 397 -5 881 -5 l881 0 -18 28 c-10 15 -116 189 -235 387 -119 198
-254 421 -299 495 -45 74 -136 225 -202 335 -66 110 -123 203 -127 208 -4 4
-82 -118 -174 -270z"/>
<path d="M2378 3533 c22 -32 140 -233 145 -247 2 -5 82 -11 180 -13 l176 -4
257 -110 c141 -60 258 -108 260 -107 2 2 -9 17 -24 33 -15 17 -47 55 -72 85
-25 30 -47 57 -50 60 -3 3 -25 30 -50 60 -25 30 -47 57 -50 60 -20 20 -110
130 -110 135 0 3 -12 22 -26 41 l-26 34 -314 0 -315 0 19 -27z"/>
<path d="M1109 3378 c43 -84 129 -254 191 -376 93 -186 115 -222 126 -210 7 7
45 69 84 138 39 69 75 128 79 133 4 4 -8 38 -27 77 -46 92 -42 100 56 100 l78
0 44 78 c24 42 60 104 80 138 l37 61 -141 6 c-78 4 -264 7 -414 7 l-272 0 79
-152z"/>
<path d="M1677 2263 c15 -27 53 -91 84 -144 85 -144 95 -163 75 -156 -12 5
-28 -13 -63 -66 -25 -40 -92 -142 -148 -227 -94 -143 -140 -215 -234 -360 -19
-30 -82 -127 -140 -216 -101 -153 -114 -174 -143 -226 -7 -13 -15 -25 -18 -28
-11 -9 -50 -68 -50 -74 0 -3 452 -6 1004 -6 l1005 0 23 32 c13 18 28 40 33 49
6 9 39 59 75 110 118 169 279 402 295 428 11 18 16 22 -213 -133 -106 -72
-206 -139 -222 -149 -27 -17 -76 -19 -730 -24 -687 -6 -700 -6 -693 13 3 10
21 42 38 69 18 28 54 86 82 130 27 44 73 117 101 163 29 45 75 119 104 165 28
45 71 112 95 149 23 37 43 71 43 74 0 3 14 26 30 51 45 66 62 102 54 116 -9
16 -81 128 -130 200 -21 32 -46 70 -54 83 -15 24 -17 24 -173 24 l-158 0 28
-47z"/>
<path d="M1199 2242 c-45 -75 -223 -367 -269 -442 -29 -47 -92 -150 -140 -230
-48 -80 -111 -183 -140 -230 -29 -47 -97 -158 -150 -248 l-98 -162 359 0 359
0 67 103 c36 56 99 153 140 215 40 61 107 165 149 230 42 64 85 129 96 145
l19 27 -57 93 c-59 95 -300 491 -312 514 -5 8 -12 3 -23 -15z"/>
<path d="M2963 2168 c-26 -40 -162 -246 -302 -458 -308 -463 -401 -607 -401
-616 0 -3 170 -3 377 1 l377 8 254 170 c139 93 256 167 259 163 6 -5 -79 -136
-184 -286 -21 -30 -64 -92 -95 -137 l-57 -83 320 0 320 0 -12 23 c-7 12 -33
58 -59 102 -26 44 -80 136 -120 205 -176 303 -247 421 -305 510 -241 369 -309
470 -316 470 -5 0 -30 -33 -56 -72z"/>
<path d="M1760 1287 c-13 -23 -46 -76 -73 -117 l-49 -75 77 -3 c42 -2 107 -2
144 0 l69 3 -69 114 c-38 63 -70 116 -72 117 -2 2 -14 -15 -27 -39z"/>
<path d="M372 885 l-12 -25 357 0 c327 0 357 1 369 18 7 9 14 20 14 25 0 4
-161 7 -358 7 l-359 0 -11 -25z"/>
<path d="M3167 892 c-10 -10 -17 -22 -17 -26 0 -10 696 -4 706 6 3 4 4 14 1
23 -6 13 -49 15 -340 15 -311 0 -335 -1 -350 -18z"/>
</g>
</svg>
